<svg viewBox="0 0 24 24" fill="none" xmlns="http://www.w3.org/2000/svg" stroke="#000000" stroke-width="0.00024000000000000003"><g id="SVGRepo_bgCarrier" stroke-width="0"></g><g id="SVGRepo_tracerCarrier" stroke-linecap="round" stroke-linejoin="round"></g><g id="SVGRepo_iconCarrier"> <path d="M14.01 21C13.52 21 13.06 20.77 12.68 20.57C12.44 20.45 12.15 20.3 12 20.3C11.85 20.3 11.55 20.45 11.32 20.57C10.84 20.82 10.24 21.12 9.59999 20.95C8.93999 20.78 8.57999 20.2 8.27999 19.74C8.14999 19.53 7.96999 19.25 7.84999 19.18C7.72999 19.11 7.40999 19.1 7.13999 19.08C6.59999 19.05 5.92999 19.02 5.44999 18.55C4.96999 18.06 4.93999 17.39 4.90999 16.85C4.89999 16.59 4.87999 16.26 4.80999 16.14C4.74999 16.03 4.45999 15.85 4.25999 15.72C3.79999 15.42 3.22999 15.05 3.04999 14.4C2.87999 13.76 3.17999 13.16 3.42999 12.68C3.54999 12.44 3.69999 12.15 3.69999 12C3.69999 11.85 3.54999 11.55 3.42999 11.32C3.17999 10.84 2.87999 10.24 3.04999 9.60002C3.21999 8.94002 3.79999 8.58002 4.25999 8.28002C4.46999 8.15002 4.74999 7.97002 4.81999 7.85002C4.88999 7.73002 4.89999 7.41002 4.91999 7.14002C4.94999 6.60002 4.97999 5.93002 5.44999 5.45002C5.93999 4.97002 6.60999 4.94002 7.14999 4.91002C7.40999 4.90002 7.73999 4.88002 7.85999 4.81002C7.96999 4.75002 8.14999 4.46002 8.27999 4.26002C8.57999 3.80002 8.94999 3.23002 9.59999 3.05002C10.24 2.88002 10.84 3.18002 11.32 3.43002C11.56 3.55002 11.85 3.70002 12 3.70002C12.15 3.70002 12.45 3.55002 12.68 3.43002C13.16 3.19002 13.76 2.88002 14.4 3.05002C15.06 3.22002 15.42 3.80002 15.72 4.26002C15.85 4.47002 16.03 4.75002 16.15 4.82002C16.27 4.89002 16.59 4.90002 16.86 4.92002C17.4 4.95002 18.07 4.98002 18.55 5.45002C19.03 5.94002 19.06 6.61002 19.09 7.15002C19.1 7.41002 19.12 7.74002 19.19 7.86002C19.25 7.97002 19.54 8.15002 19.74 8.28002C20.2 8.58002 20.77 8.95002 20.95 9.60002C21.12 10.24 20.82 10.84 20.57 11.32C20.45 11.56 20.3 11.85 20.3 12C20.3 12.15 20.45 12.45 20.57 12.68C20.82 13.16 21.12 13.76 20.95 14.4C20.78 15.06 20.2 15.42 19.74 15.72C19.53 15.85 19.25 16.03 19.18 16.15C19.11 16.27 19.1 16.59 19.08 16.86C19.05 17.4 19.02 18.07 18.55 18.55C18.06 19.03 17.39 19.06 16.85 19.09C16.59 19.1 16.26 19.12 16.14 19.19C16.03 19.25 15.85 19.54 15.72 19.74C15.42 20.2 15.05 20.77 14.4 20.95C14.27 20.99 14.14 21 14.01 21ZM9.99999 4.50002C9.99999 4.50002 9.99999 4.50002 9.98999 4.50002C9.88999 4.54002 9.65999 4.88002 9.54999 5.07002C9.30999 5.44002 9.03999 5.86002 8.60999 6.11002C8.16999 6.36002 7.66999 6.39002 7.21999 6.41002C6.99999 6.42002 6.58999 6.44002 6.49999 6.51002C6.43999 6.59002 6.41999 6.99002 6.40999 7.21002C6.38999 7.66002 6.35999 8.16002 6.10999 8.59002C5.85999 9.02002 5.43999 9.29002 5.06999 9.53002C4.87999 9.65002 4.53999 9.87002 4.49999 9.98002C4.48999 10.09 4.65999 10.43 4.75999 10.63C4.95999 11.03 5.19999 11.48 5.19999 11.99C5.19999 12.5 4.96999 12.95 4.75999 13.35C4.65999 13.55 4.47999 13.89 4.49999 14C4.53999 14.1 4.87999 14.33 5.06999 14.44C5.43999 14.68 5.85999 14.95 6.10999 15.38C6.35999 15.82 6.38999 16.32 6.40999 16.77C6.41999 16.99 6.43999 17.4 6.50999 17.49C6.58999 17.55 6.98999 17.57 7.20999 17.58C7.65999 17.6 8.15999 17.63 8.58999 17.88C9.01999 18.13 9.28999 18.55 9.52999 18.92C9.64999 19.11 9.86999 19.45 9.97999 19.49C10.08 19.52 10.43 19.33 10.63 19.23C11.03 19.03 11.48 18.79 11.99 18.79C12.5 18.79 12.95 19.02 13.35 19.23C13.55 19.33 13.87 19.52 14 19.49C14.1 19.45 14.33 19.11 14.44 18.92C14.68 18.55 14.95 18.13 15.38 17.88C15.82 17.63 16.32 17.6 16.77 17.58C16.99 17.57 17.4 17.55 17.49 17.48C17.55 17.4 17.57 17 17.58 16.78C17.6 16.33 17.63 15.83 17.88 15.4C18.13 14.97 18.55 14.7 18.92 14.46C19.11 14.34 19.45 14.12 19.49 14.01C19.5 13.9 19.33 13.56 19.23 13.36C19.03 12.96 18.79 12.51 18.79 12C18.79 11.49 19.02 11.04 19.23 10.64C19.33 10.44 19.5 10.1 19.49 9.99002C19.45 9.88002 19.1 9.66002 18.92 9.54002C18.55 9.30002 18.13 9.03002 17.88 8.60002C17.63 8.16002 17.6 7.66002 17.58 7.21002C17.57 6.99002 17.55 6.58002 17.48 6.49002C17.4 6.43002 17 6.41002 16.78 6.40002C16.33 6.38002 15.83 6.35002 15.4 6.10002C14.97 5.85002 14.7 5.43002 14.46 5.06002C14.34 4.87002 14.12 4.53002 14.01 4.49002C13.91 4.46002 13.56 4.65002 13.36 4.75002C12.96 4.95002 12.51 5.19002 12 5.19002C11.49 5.19002 11.04 4.96002 10.64 4.75002C10.44 4.65002 10.12 4.49002 9.99999 4.49002V4.50002ZM10.49 15.51C10.29 15.51 10.1 15.43 9.95999 15.29L7.44999 12.78C7.15999 12.49 7.15999 12.01 7.44999 11.72C7.73999 11.43 8.21999 11.43 8.50999 11.72L10.49 13.7L15.48 8.71002C15.77 8.42002 16.25 8.42002 16.54 8.71002C16.83 9.00002 16.83 9.48002 16.54 9.77002L11.02 15.29C10.88 15.43 10.69 15.51 10.49 15.51Z" fill="#000000"></path> </g></svg>
